PathFileType	4	(X/Y/Z)	E:\Qualisys_Data\Carbon_Farble_Plate\Data\Amateur_Runner\S14\T3\S14T3V22_c3d.trc
DataRate	CameraRate	NumFrames	NumMarkers	Units	OrigDataRate	OrigDataStartFrame	OrigNumFrames
200.000000	200.000000	5	39	mm	200.000000	264	302
Frame#	Time	LSHO			RSHO			LICST			RICST			LASIS			LHEEL			RASIS			LTROC			RTROC			SACR			LTH1			LSK4			LTH2			LTH3			RHM5			LSK2			LTH4			RTH1			LTOE			RTH2			RTH3			RTH4			LLEP			RLEP			LSK1			LSK3			RSK1			LHM5			RSK2			LFT1			RSK3			RSK4			LLME			RLME			RTOE			RHEEL			RFT1			RFT2			LFT2			
		X1	Y1	Z1	X2	Y2	Z2	X3	Y3	Z3	X4	Y4	Z4	X5	Y5	Z5	X6	Y6	Z6	X7	Y7	Z7	X8	Y8	Z8	X9	Y9	Z9	X10	Y10	Z10	X11	Y11	Z11	X12	Y12	Z12	X13	Y13	Z13	X14	Y14	Z14	X15	Y15	Z15	X16	Y16	Z16	X17	Y17	Z17	X18	Y18	Z18	X19	Y19	Z19	X20	Y20	Z20	X21	Y21	Z21	X22	Y22	Z22	X23	Y23	Z23	X24	Y24	Z24	X25	Y25	Z25	X26	Y26	Z26	X27	Y27	Z27	X28	Y28	Z28	X29	Y29	Z29	X30	Y30	Z30	X31	Y31	Z31	X32	Y32	Z32	X33	Y33	Z33	X34	Y34	Z34	X35	Y35	Z35	X36	Y36	Z36	X37	Y37	Z37	X38	Y38	Z38	X39	Y39	Z39	

265	1.32	2260.108154296875	1399.08447265625	-635.6622924804688	2236.309326171875	1402.80615234375	-331.0105895996094	2244.301025390625	956.2976684570312	-603.859619140625	2263.005126953125	958.6513671875	-323.32958984375	2294.590576171875	911.7219848632812	-584.0037231445312	1922.263916015625	173.763427734375	-477.7703247070312	2297.68505859375	923.45703125	-344.8634948730469	2159.490478515625	834.6156616210938	-618.791259765625	2176.0234375	824.044189453125	-290.4075012207031	2116.92626953125	947.44189453125	-468.1168518066406	2255.881591796875	611.4954833984375	-625.560546875	2078.536376953125	324.4808959960938	-566.3594970703125	2185.21435546875	601.2698974609375	-602.9088134765625	2282.104736328125	515.5747680664062	-606.3585815429688	2197.698486328125	109.4723510742188	-306.8157043457031	2142.208251953125	394.7813720703125	-592.5087890625	2205.392578125	506.5010375976562	-584.5020141601562	2399.674072265625	674.4073486328125	-301.2987670898438	2130.07177734375	39.31180953979492	-518.102783203125	2329.4677734375	642.2561645507812	-290.7854309082031	2443.2158203125	587.0285034179688	-327.664306640625	2369.017578125	550.1830444335938	-308.8581237792969	2233.604736328125	440.9024658203125	-600.7381591796875	2415.487060546875	500.4304504394531	-312.9290161132812	2204.316162109375	340.9589538574219	-592.890869140625	2135.554443359375	267.7195434570312	-571.0194091796875	2364.58544921875	396.2611694335938	-314.8351135253906	2057.69873046875	51.82326507568359	-572.735595703125	2301.64306640625	454.0298767089844	-310.5662231445312	1922.178466796875	144.077880859375	-448.2203369140625	2288.398681640625	325.6313781738281	-325.5620727539062	2235.12353515625	384.253173828125	-317.8940734863281	1987.52734375	169.2716064453125	-539.8843994140625	2136.890869140625	239.7093963623047	-332.7850341796875	2254.587646484375	70.89208984375	-376.3582153320312	2070.528076171875	253.0279846191406	-383.9361877441406	2057.910400390625	223.6943206787109	-410.6233520507812	2054.921142578125	237.6634063720703	-359.6518249511719	1906.016845703125	145.8279113769531	-499.3378601074219
266	1.325	2279.0751953125	1402.808837890625	-634.3190307617188	2252.46728515625	1405.25537109375	-330.58544921875	2263.02197265625	959.28173828125	-603.7704467773438	2287.665771484375	965.2691650390624	-326.7425231933594	2312.92578125	913.9630126953124	-583.8137817382812	1933.097534179688	184.0671691894531	-481.1800842285156	2315.6396484375	926.9102783203124	-345.2961120605469	2178.447265625	837.7699584960938	-619.96826171875	2195.879638671875	828.09521484375	-289.4386596679688	2135.47021484375	949.8381958007812	-468.2625122070312	2275.834228515625	614.0933837890625	-628.3809204101562	2090.39794921875	330.4664306640625	-569.5471801757812	2201.361083984375	604.5221557617188	-604.8692626953125	2297.402099609375	517.5623779296875	-609.9806518554688	2241.204345703125	103.9444122314453	-308.9181518554688	2155.221923828125	400.0827026367188	-595.71240234375	2220.47119140625	509.1531677246094	-587.35546875	2420.458251953125	679.8543090820312	-302.5936584472656	2133.3828125	38.06570434570312	-520.0942993164062	2350.71630859375	646.6503295898438	-291.9971008300781	2465.273193359375	593.47021484375	-329.3594970703125	2391.5009765625	555.4990844726562	-310.4586181640625	2247.969970703125	444.9911804199219	-604.6336669921875	2438.639404296875	506.2394714355469	-314.7356262207031	2216.344970703125	344.1553039550781	-596.915283203125	2146.62353515625	272.8432006835938	-574.749267578125	2392.0771484375	398.6026611328125	-316.8651733398438	2061.201904296875	52.83455657958984	-574.6572265625	2325.85888671875	453.3601989746094	-312.2185668945312	1931.327758789062	154.8600006103516	-451.3738708496094	2320.24951171875	323.9237976074219	-327.9112854003906	2263.677734375	380.0330200195312	-319.3923645019531	1997.323608398438	175.4915008544922	-543.0303344726562	2172.972900390625	230.1885223388672	-334.9053649902344	2299.86376953125	68.18656921386719	-378.3005981445312	2105.368408203125	240.114501953125	-385.6038818359375	2095.31982421875	209.7822723388672	-413.0643615722656	2091.125	224.0633087158203	-361.3708801269531	1915.659545898438	156.733154296875	-502.4786682128906
267	1.33	2299.301025390625	1406.794799804688	-633.6912841796875	2268.723388671875	1407.764038085938	-330.5846862792969	2282.18359375	962.1611328125	-603.767822265625	2305.16796875	968.0211791992188	-326.7392578125	2331.998779296875	916.7682495117188	-584.136474609375	1946.521484375	195.257568359375	-484.5869140625	2334.289794921875	930.4291381835938	-345.7354736328125	2197.29296875	840.7078247070312	-621.097412109375	2215.052978515625	831.6206665039062	-289.2584838867188	2154.37939453125	952.4751586914062	-468.6592407226562	2292.19873046875	616.6176147460938	-630.4026489257812	2102.34326171875	335.9526977539062	-572.95263671875	2217.538818359375	607.3525390625	-606.55712890625	2312.704345703125	519.54931640625	-613.1597290039062	2283.529541015625	96.46900177001952	-310.1265563964844	2168.302978515625	404.7402038574219	-598.8751220703125	2235.868408203125	511.7268981933594	-590.4053344726562	2441.062744140625	685.2988891601562	-303.5238037109375	2136.1025390625	36.312744140625	-520.83349609375	2371.779541015625	651.3241577148438	-293.0820007324219	2486.625244140625	599.442626953125	-331.2811889648438	2413.545654296875	560.3915405273438	-312.1268310546875	2261.791748046875	448.3278503417969	-608.2464599609375	2461.708251953125	511.843017578125	-317.1488647460938	2228.46728515625	347.90380859375	-601.297607421875	2157.933837890625	277.0676879882812	-579.1504516601562	2419.67529296875	400.9708251953125	-318.5662231445312	2065.48193359375	54.76932144165039	-576.5746459960938	2350.540283203125	451.9996948242188	-313.6347351074219	1941.161743164062	166.5884246826172	-454.5561218261719	2351.570068359375	323.1578674316406	-328.8532104492188	2292.279296875	375.3607177734375	-321.0310668945312	2007.501953125	181.0709838867188	-546.477783203125	2209.78369140625	220.5631866455078	-336.4766540527344	2345.00146484375	65.62985229492188	-380.1881408691406	2142.32763671875	226.5300750732422	-387.8875427246094	2133.395263671875	196.154541015625	-415.228515625	2128.2451171875	210.0940856933594	-363.7315063476562	1925.74462890625	167.9235992431641	-505.6056518554688
268	1.335	2318.39208984375	1409.868286132812	-632.47021484375	2285.30029296875	1409.58837890625	-330.7742614746094	2301.345947265625	964.8516235351562	-604.046875	2322.668212890625	971.0013427734376	-326.3856201171875	2351.719970703125	920.5588989257812	-584.3396606445312	1958.850341796875	205.7624206542969	-488.9676208496094	2352.355224609375	933.7498779296876	-346.1862487792969	2215.837158203125	843.7269897460938	-622.2340698242188	2234.448974609375	835.0480346679688	-289.2381286621094	2173.01611328125	954.693603515625	-469.3758850097656	2308.246337890625	618.8199462890625	-632.7888793945312	2114.65673828125	341.268798828125	-576.6904907226562	2233.765869140625	610.2969360351562	-608.8685913085938	2327.909423828125	521.8397827148438	-615.9133911132812	2326.59716796875	91.5735321044922	-312.23095703125	2182.152099609375	409.0044250488281	-601.9473266601562	2251.345947265625	514.2628784179688	-593.8115844726562	2461.248046875	690.123291015625	-304.6524658203125	2139.634521484375	34.53281402587891	-522.102294921875	2392.57568359375	655.6976928710938	-293.9291381835938	2507.7490234375	604.893798828125	-332.8872680664062	2435.078857421875	565.2163696289062	-314.0024719238281	2275.247314453125	450.9434204101562	-611.1806640625	2483.72216796875	517.0204467773438	-319.1803588867188	2240.876220703125	351.6405334472656	-605.2449951171875	2169.176025390625	281.688232421875	-583.3763427734375	2446.635498046875	403.2754516601562	-320.2102661132812	2070.445068359375	56.56367874145508	-578.8318481445312	2375.09765625	450.3355407714844	-315.075927734375	1951.988037109375	177.8962860107422	-458.6845397949219	2382.560546875	321.7097778320312	-330.5504760742188	2320.8408203125	370.7902526855469	-322.6175537109375	2018.115234375	187.6478424072266	-550.313720703125	2246.9169921875	211.6209259033203	-338.6120910644531	2390.1923828125	64.10237121582031	-381.7463684082031	2179.36572265625	213.5530395507812	-390.3650512695312	2172.252685546875	183.4492034912109	-417.3570251464844	2166.139404296875	196.5133361816406	-366.0123901367188	1936.879760742188	179.3764953613281	-509.9944458007812
269	1.34	2337.62646484375	1413.037231445312	-631.30419921875	2301.60400390625	1412.139038085938	-330.5990600585938	2320.6416015625	968.0009765625	-603.9580688476562	2339.8935546875	973.9180908203124	-326.2037353515625	2369.729248046875	922.2332763671876	-584.0150146484375	1972.467407226562	215.9955596923828	-493.4786987304688	2370.50732421875	936.6580200195312	-346.2313537597656	2230.844482421875	846.2738647460938	-622.83154296875	2253.875244140625	838.82275390625	-288.5087280273438	2191.79736328125	957.2274169921876	-469.7989196777344	2324.324462890625	620.9881591796875	-634.5999145507812	2127.4091796875	346.3096618652344	-580.1288452148438	2249.770263671875	613.2473754882812	-611.3867797851562	2343.147705078125	523.7772827148438	-618.8775024414062	2370.149169921875	87.230712890625	-313.9476013183594	2195.586181640625	413.3545227050781	-605.2621459960938	2266.439453125	516.7352905273438	-596.8441162109375	2481.1396484375	694.73974609375	-305.4684753417969	2142.7890625	33.00650405883789	-522.9039306640625	2412.6650390625	659.3063354492188	-295.404541015625	2527.9638671875	609.9205322265625	-334.4732360839844	2456.16357421875	569.5798950195312	-315.5165405273438	2291.81591796875	453.9371337890625	-615.232177734375	2503.631591796875	521.6657104492188	-320.1188049316406	2253.56494140625	355.2218627929688	-609.076171875	2181.186767578125	286.1277160644531	-587.3754272460938	2473.544921875	405.3346862792969	-321.57470703125	2075.49951171875	58.5931282043457	-579.95361328125	2399.44140625	448.3540649414062	-316.6195678710938	1963.589599609375	188.9142913818359	-462.7496948242188	2414.105224609375	320.299560546875	-332.3747863769531	2348.84814453125	366.1739501953125	-324.5498046875	2029.361694335938	193.5335540771484	-554.4048461914062	2283.781005859375	202.7435607910156	-340.8006591796875	2435.91552734375	63.34054946899414	-383.5048522949219	2216.85009765625	201.2263641357422	-392.2554626464844	2210.85888671875	170.9214324951172	-419.4891052246094	2204.23876953125	183.0420379638672	-368.8394775390625	1948.7490234375	190.7849273681641	-514.5255737304688
